<svg width="26" height="19" viewBox="0 0 26 19" xmlns="http://www.w3.org/2000/svg">
<path d="M26 4.71484V3.34375C26 1.77319 24.7268 0.5 23.1562 0.5H2.84375C1.27319 0.5 0 1.77319 0 3.34375V4.71484C0 4.85505 0.113699 4.96875 0.253906 4.96875H25.7461C25.8863 4.96875 26 4.85505 26 4.71484Z" />
<path d="M0 6.84766V15.5312C0 17.1018 1.27319 18.375 2.84375 18.375H23.1562C24.7268 18.375 26 17.1018 26 15.5312V6.84766C26 6.70745 25.8863 6.59375 25.7461 6.59375H0.253906C0.113699 6.59375 0 6.70745 0 6.84766ZM6.5 13.5C6.5 13.9487 6.1362 14.3125 5.6875 14.3125H4.875C4.4263 14.3125 4.0625 13.9487 4.0625 13.5V12.6875C4.0625 12.2388 4.4263 11.875 4.875 11.875H5.6875C6.1362 11.875 6.5 12.2388 6.5 12.6875V13.5Z" />
</svg>
