<svg width="20" height="26" viewBox="0 0 20 26" xmlns="http://www.w3.org/2000/svg">
<path d="M3.01846 25.5H17.6669C18.8785 25.5 19.8642 24.5144 19.8642 23.3027V7.82422H14.7372C13.5256 7.82422 12.5399 6.83857 12.5399 5.62695V0.5H3.01846C1.80684 0.5 0.821198 1.48564 0.821198 2.69727V23.3027C0.821198 24.5144 1.80684 25.5 3.01846 25.5ZM5.94815 10.8027H14.7372C15.142 10.8027 15.4696 11.1303 15.4696 11.5352C15.4696 11.94 15.142 12.2676 14.7372 12.2676H5.94815C5.54332 12.2676 5.21573 11.94 5.21573 11.5352C5.21573 11.1303 5.54332 10.8027 5.94815 10.8027ZM5.94815 13.7324H14.7372C15.142 13.7324 15.4696 14.06 15.4696 14.4648C15.4696 14.8697 15.142 15.1973 14.7372 15.1973H5.94815C5.54332 15.1973 5.21573 14.8697 5.21573 14.4648C5.21573 14.06 5.54332 13.7324 5.94815 13.7324ZM5.94815 16.6621H14.7372C15.142 16.6621 15.4696 16.9897 15.4696 17.3945C15.4696 17.7994 15.142 18.127 14.7372 18.127H5.94815C5.54332 18.127 5.21573 17.7994 5.21573 17.3945C5.21573 16.9897 5.54332 16.6621 5.94815 16.6621ZM5.94815 19.5918H11.8075C12.2124 19.5918 12.5399 19.9194 12.5399 20.3242C12.5399 20.7291 12.2124 21.0566 11.8075 21.0566H5.94815C5.54332 21.0566 5.21573 20.7291 5.21573 20.3242C5.21573 19.9194 5.54332 19.5918 5.94815 19.5918Z" />
<path d="M14.7372 6.35938H19.435L14.0048 0.92915V5.62695C14.0048 6.03105 14.3331 6.35938 14.7372 6.35938Z" />
</svg>
