<svg width="78" height="87" viewBox="0 0 78 87" fill="none" xmlns="http://www.w3.org/2000/svg">
<path d="M69.0417 9.57015H51.1025C49.3 4.59182 44.5792 0.986816 39 0.986816C33.4208 0.986816 28.7 4.59182 26.8975 9.57015H8.95833C4.2375 9.57015 0.375 13.4327 0.375 18.1535V78.2368C0.375 82.9577 4.2375 86.8202 8.95833 86.8202H69.0417C73.7625 86.8202 77.625 82.9577 77.625 78.2368V18.1535C77.625 13.4327 73.7625 9.57015 69.0417 9.57015ZM39 9.57015C41.3604 9.57015 43.2917 11.5014 43.2917 13.8618C43.2917 16.2222 41.3604 18.1535 39 18.1535C36.6396 18.1535 34.7083 16.2222 34.7083 13.8618C34.7083 11.5014 36.6396 9.57015 39 9.57015ZM43.2917 69.6535H21.8333C19.4729 69.6535 17.5417 67.7222 17.5417 65.3618C17.5417 63.0014 19.4729 61.0702 21.8333 61.0702H43.2917C45.6521 61.0702 47.5833 63.0014 47.5833 65.3618C47.5833 67.7222 45.6521 69.6535 43.2917 69.6535ZM56.1667 52.4868H21.8333C19.4729 52.4868 17.5417 50.5556 17.5417 48.1952C17.5417 45.8347 19.4729 43.9035 21.8333 43.9035H56.1667C58.5271 43.9035 60.4583 45.8347 60.4583 48.1952C60.4583 50.5556 58.5271 52.4868 56.1667 52.4868ZM56.1667 35.3202H21.8333C19.4729 35.3202 17.5417 33.3889 17.5417 31.0285C17.5417 28.6681 19.4729 26.7368 21.8333 26.7368H56.1667C58.5271 26.7368 60.4583 28.6681 60.4583 31.0285C60.4583 33.3889 58.5271 35.3202 56.1667 35.3202Z" fill="#566246"/>
</svg>
