<svg width="21" height="27" viewBox="0 0 21 27" xmlns="http://www.w3.org/2000/svg">
<path d="M12.3463 5.5166H8.78861C7.68107 6.77902 6.29068 7.75148 4.72763 8.35934V13.0195C4.72763 16.9607 7.00923 20.495 10.5675 22.1129C14.1257 20.495 16.4073 16.9607 16.4073 13.0195V8.35984C14.8438 7.75199 13.4539 6.77953 12.3463 5.5166ZM14.6609 12.0689L9.92103 16.8084C9.77224 16.9572 9.57724 17.0318 9.38275 17.0318C9.18775 17.0318 8.99275 16.9571 8.84396 16.8084L6.474 14.4389C6.17693 14.1413 6.17693 13.6589 6.474 13.3613C6.77158 13.0643 7.254 13.0643 7.55158 13.3613L9.38275 15.1925L13.5839 10.9919C13.881 10.6943 14.3634 10.6943 14.6609 10.9919C14.958 11.2894 14.958 11.7713 14.6609 12.0689ZM20.2113 4.50098C18.0156 4.50098 16.0158 3.29441 14.991 1.35254C14.8595 1.1027 14.6 0.946289 14.3176 0.946289H6.81723C6.53488 0.946289 6.27539 1.1027 6.14336 1.35254C5.11915 3.29441 3.11939 4.50098 0.919037 4.50098C0.498568 4.50098 0.157318 4.84223 0.157318 5.2627V13.0195C0.157318 16.138 1.13181 19.1158 2.97517 21.631C4.81853 24.1462 7.36419 25.9717 10.3379 26.9107C10.4126 26.9346 10.4903 26.9463 10.5675 26.9463C10.6447 26.9463 10.7224 26.9346 10.797 26.9107C13.7708 25.9718 16.3164 24.1463 18.1598 21.631C20.0031 19.1158 20.9776 16.138 20.9776 13.0195V5.2627C20.9776 4.84223 20.6318 4.50098 20.2113 4.50098ZM17.9308 12.985C17.9308 17.6498 15.1556 21.8214 10.8605 23.6125C10.7665 23.6517 10.667 23.6709 10.5675 23.6709C10.4679 23.6709 10.3679 23.6516 10.2745 23.6125C5.97939 21.8214 3.20419 17.6497 3.20419 12.985V7.78906C3.20419 7.46 3.41544 7.16801 3.72826 7.06543C5.34462 6.53375 6.76853 5.55621 7.8456 4.23844C7.99033 4.06121 8.20716 3.95863 8.43568 3.95863H12.6993C12.9329 3.95863 13.2081 4.13941 13.2893 4.23844C14.3664 5.55621 15.7903 6.53375 17.4066 7.06543C17.6296 7.13855 17.8002 7.30766 17.8804 7.5184C17.8815 7.52043 17.882 7.52297 17.883 7.525C17.9023 7.5773 17.916 7.63215 17.9236 7.68852C17.9242 7.6941 17.9251 7.7002 17.9257 7.70578C17.9287 7.7332 17.9308 7.76062 17.9308 7.78906V12.985Z" />
</svg>
