<svg width="27" height="27" viewBox="0 0 27 27" xmlns="http://www.w3.org/2000/svg">
<path d="M25.6136 11.8087C25.613 11.8082 25.6124 11.8076 25.6118 11.807L15.0059 1.20142C14.5538 0.749146 13.9528 0.5 13.3134 0.5C12.6741 0.5 12.0731 0.748947 11.6208 1.20122L1.02041 11.8014C1.01684 11.805 1.01327 11.8087 1.0097 11.8123C0.081356 12.746 0.0829429 14.2609 1.01426 15.1922C1.43975 15.6179 2.00172 15.8645 2.60257 15.8903C2.62696 15.8927 2.65156 15.8939 2.67636 15.8939H3.09907V23.6989C3.09907 25.2434 4.35571 26.5 5.90057 26.5H10.05C10.4705 26.5 10.8117 26.159 10.8117 25.7383V19.6191C10.8117 18.9144 11.3849 18.3411 12.0897 18.3411H14.5372C15.2419 18.3411 15.8152 18.9144 15.8152 19.6191V25.7383C15.8152 26.159 16.1562 26.5 16.5769 26.5H20.7263C22.2712 26.5 23.5278 25.2434 23.5278 23.6989V15.8939H23.9198C24.5589 15.8939 25.16 15.6449 25.6124 15.1926C26.5447 14.2597 26.5451 12.7422 25.6136 11.8087V11.8087Z" />
</svg>
