<svg width="27" height="18" viewBox="0 0 27 18" xmlns="http://www.w3.org/2000/svg">
<path d="M1.62981 17.3751H24.7409C25.5354 17.3751 26.1854 16.7251 26.1854 15.9306C26.1854 15.1362 25.5354 14.4862 24.7409 14.4862H1.62981C0.835364 14.4862 0.185364 15.1362 0.185364 15.9306C0.185364 16.7251 0.835364 17.3751 1.62981 17.3751ZM1.62981 10.1529H24.7409C25.5354 10.1529 26.1854 9.50286 26.1854 8.70842C26.1854 7.91397 25.5354 7.26397 24.7409 7.26397H1.62981C0.835364 7.26397 0.185364 7.91397 0.185364 8.70842C0.185364 9.50286 0.835364 10.1529 1.62981 10.1529ZM0.185364 1.48619C0.185364 2.28064 0.835364 2.93064 1.62981 2.93064H24.7409C25.5354 2.93064 26.1854 2.28064 26.1854 1.48619C26.1854 0.691748 25.5354 0.041748 24.7409 0.041748H1.62981C0.835364 0.041748 0.185364 0.691748 0.185364 1.48619Z" />
</svg>
