<svg width="25" height="24" viewBox="0 0 25 24" fill="none" xmlns="http://www.w3.org/2000/svg">
<path fill-rule="evenodd" clip-rule="evenodd" d="M22.1622 4.93744H19.6561C20.52 4.52001 21.0677 3.84253 20.9939 2.67599C20.8887 1.01111 19.4811 -1.90735e-06 17.7124 -1.90735e-06C16.1107 -1.90735e-06 14.2128 0.84762 12.7177 2.81492C11.2227 0.84762 9.32477 0.0104338 7.72301 0.0104338C5.95431 0.0104338 4.54674 1.00941 4.44151 2.67428C4.36779 3.84082 4.91544 4.52005 5.77937 4.93747H3.34037C1.90658 4.93747 0.685364 6.21101 0.685364 7.71351V10.162C0.685364 10.5376 1.03484 10.7815 1.39328 10.7815H11.5733V5.20598C11.9781 5.15622 12.2103 5.10415 12.436 5.05355C12.5064 5.03776 12.5762 5.02212 12.6503 5.00673C12.7809 5.03382 12.9424 5.0617 13.1049 5.08976C13.3099 5.12515 13.5165 5.16082 13.6646 5.19551V10.7814H24.1092C24.4677 10.7814 24.6854 10.5375 24.6854 10.1619V7.71347C24.6854 6.21098 23.596 4.93744 22.1622 4.93744ZM17.7125 1.91822C17.8569 1.91822 19.1246 1.94379 19.1806 2.8296C19.1848 2.89483 19.1897 3.05178 19.1469 3.09968C19.1294 3.11933 18.6959 3.58073 16.8318 3.58073C16.1002 3.58073 15.3397 3.50924 14.6453 3.41251C15.6742 2.34097 16.8119 1.91822 17.7125 1.91822ZM6.25486 2.8296C6.31083 1.94379 7.57864 1.91822 7.72304 1.91822C8.62382 1.91822 9.76181 2.34111 10.791 3.41327C10.0981 3.50959 9.33801 3.58069 8.60374 3.58069C6.73964 3.58069 6.30611 3.1193 6.28855 3.09964C6.24576 3.05178 6.25074 2.89486 6.25486 2.8296ZM1.58163 21.316C1.58163 22.8185 2.81519 24 4.24898 24H11.5733V11.4772H1.58163V21.316ZM21.1237 24H13.6646V11.4772H23.6563V21.316C23.6563 22.8185 22.5575 24 21.1237 24Z"/>
</svg>
