<?xml version="1.0" encoding="UTF-8"?>
<svg id="Layer_1" data-name="Layer 1" xmlns="http://www.w3.org/2000/svg" viewBox="0 0 774.683 175.608">
  <defs>
    <style>
      .cls-1 {
        fill: #036;
      }

      .cls-2 {
        fill: #d4dace;
      }

      .cls-3 {
        fill: #566246;
      }
    </style>
  </defs>
  <circle class="cls-2" cx="117.933" cy="28.118" r="27.946"/>
  <path class="cls-1" d="m123.237,108.985c-.396,0-.798-.044-1.201-.137-5.955-1.369-17.017-5.381-24.191-16.874-5.121-8.205-6.053-16.779-5.934-22.527.062-2.948,2.474-5.264,5.451-5.228,2.949.062,5.29,2.502,5.228,5.451-.09,4.298.586,10.675,4.315,16.649,5.132,8.221,13.182,11.122,17.523,12.12,2.875.661,4.669,3.526,4.008,6.401-.568,2.472-2.767,4.145-5.2,4.145Z"/>
  <g>
    <path class="cls-2" d="m166.284,175.435c-1.447,0-2.89-.585-3.943-1.737l-23.1-25.271c-1.99-2.177-1.838-5.555.339-7.545,2.176-1.989,5.555-1.838,7.545.339l23.1,25.271c1.99,2.177,1.838,5.555-.339,7.545-1.024.936-2.315,1.398-3.602,1.398Z"/>
    <path class="cls-3" d="m127.482,168.808c-.026,0-.053,0-.08,0-1.603-.024-3.11-.767-4.106-2.023l-37.968-47.923c-1.832-2.312-1.442-5.671.87-7.502,2.312-1.831,5.671-1.442,7.502.87l33.908,42.799,11.49-13.642c1.899-2.257,5.268-2.545,7.524-.645,2.256,1.9,2.545,5.269.645,7.524l-15.701,18.643c-1.015,1.206-2.511,1.9-4.084,1.9Z"/>
    <path class="cls-2" d="m5.683,161.23c-1.2,0-2.407-.402-3.403-1.228-2.271-1.881-2.588-5.248-.707-7.519l30.837-37.233c1.881-2.272,5.248-2.588,7.519-.707,2.271,1.881,2.588,5.248.707,7.519l-30.837,37.233c-1.056,1.275-2.58,1.934-4.116,1.934Z"/>
    <path class="cls-3" d="m61.27,151.601c-1.518,0-2.963-.646-3.977-1.775l-24.747-27.604c-1.969-2.196-1.784-5.573.412-7.542,2.197-1.968,5.572-1.783,7.542.412l20.763,23.161,23.465-26.275c1.965-2.2,5.341-2.391,7.541-.426,2.2,1.965,2.391,5.341.426,7.541l-27.441,30.727c-1.012,1.133-2.459,1.782-3.979,1.783h-.005Z"/>
  </g>
  <path class="cls-1" d="m51.899,62.873h-13.438c-2.949,0-5.34-2.391-5.34-5.34s2.391-5.34,5.34-5.34h13.438c1.379,0,2.521-1.122,2.544-2.501l.15-8.964c.049-2.918,2.431-5.251,5.338-5.251.031,0,.061,0,.091,0,2.949.05,5.3,2.48,5.25,5.429l-.15,8.964c-.119,7.17-6.051,13.003-13.223,13.003Z"/>
  <g>
    <g>
      <path class="cls-1" d="m208.774,131.157h11.017c2.521,0,4.728.465,6.618,1.394,1.892.93,3.357,2.246,4.397,3.947,1.04,1.703,1.56,3.689,1.56,5.958s-.52,4.262-1.56,5.98-2.506,3.057-4.397,4.019c-1.891.962-4.097,1.442-6.618,1.442h-5.815v13.191h-5.201v-35.931Zm10.118,18.438c2.616,0,4.618-.598,6.004-1.795s2.081-2.947,2.081-5.249c0-2.269-.694-4.019-2.081-5.248s-3.388-1.843-6.004-1.843h-4.916v14.135h4.916Z"/>
      <path class="cls-1" d="m252.27,131.157h22.789v4.444h-17.54v10.874h15.602v4.444h-15.602v11.726h18.201v4.444h-23.45v-35.931Z"/>
      <path class="cls-1" d="m305.553,135.696h-12.01v-4.539h29.456v4.539h-12.01v31.392h-5.436v-31.392Z"/>
      <path class="cls-1" d="m366.352,131.157h5.438v35.931h-5.438v-35.931Z"/>
      <path class="cls-1" d="m394.434,131.157h5.013l20.661,27.989v-27.989h4.964v35.931h-4.964l-20.708-28.036v28.036h-4.965v-35.931Z"/>
      <path class="cls-1" d="m467.361,164.984c-2.348,1.908-5.539,2.861-9.574,2.861-1.387,0-2.821-.126-4.301-.379-1.483-.253-2.87-.59-4.161-1.015-1.293-.426-2.381-.938-3.262-1.537l.615-4.729c1.513.915,3.262,1.655,5.248,2.223,1.986.566,3.86.85,5.625.85,2.459,0,4.397-.504,5.815-1.513,1.419-1.008,2.128-2.394,2.128-4.16,0-1.04-.236-1.916-.709-2.624s-1.285-1.37-2.436-1.986c-1.15-.615-2.766-1.253-4.845-1.914-2.648-.851-4.76-1.749-6.335-2.696-1.577-.945-2.712-2.057-3.405-3.332-.694-1.277-1.04-2.797-1.04-4.562,0-2.049.513-3.83,1.537-5.343s2.451-2.678,4.279-3.498c1.828-.819,3.972-1.229,6.43-1.229,1.797,0,3.616.236,5.46.709,1.844.473,3.475,1.119,4.894,1.938l-.804,4.539c-1.355-.819-2.885-1.458-4.586-1.914-1.702-.456-3.326-.686-4.87-.686-2.206,0-3.932.458-5.176,1.372-1.245.914-1.868,2.191-1.868,3.83,0,.945.205,1.757.615,2.434.409.678,1.134,1.3,2.174,1.868,1.04.566,2.489,1.167,4.35,1.797,2.868.914,5.16,1.883,6.879,2.907,1.717,1.024,2.955,2.174,3.711,3.451s1.134,2.798,1.134,4.562c0,3.278-1.174,5.87-3.522,7.777Z"/>
      <path class="cls-1" d="m492.205,131.157h5.438v20.566c0,7.502,3.34,11.252,10.023,11.252s10.023-3.75,10.023-11.252v-20.566h5.39v20.991c0,4.981-1.364,8.841-4.09,11.583-2.727,2.742-6.533,4.114-11.418,4.114-4.854,0-8.627-1.378-11.323-4.137-2.694-2.757-4.042-6.611-4.042-11.559v-20.991Z"/>
      <path class="cls-1" d="m545.487,131.157h10.874c2.584,0,4.83.456,6.738,1.37,1.906.915,3.38,2.207,4.42,3.877,1.04,1.67,1.56,3.64,1.56,5.909,0,2.302-.591,4.287-1.773,5.958s-2.718,2.931-4.61,3.782l9.976,15.034h-6.242l-8.699-13.757c-.41.031-.82.046-1.229.046h-5.815v13.711h-5.201v-35.931Zm9.834,17.917c5.579,0,8.369-2.268,8.369-6.807,0-2.238-.685-3.932-2.057-5.083-1.37-1.15-3.365-1.725-5.98-1.725h-4.964v13.615h4.633Z"/>
      <path class="cls-1" d="m603.167,131.157h5.815l14.466,35.931h-5.768l-3.924-10.307h-15.697l-3.924,10.307h-5.485l14.515-35.931Zm8.935,21.275l-6.193-16.406-6.193,16.406h12.386Z"/>
      <path class="cls-1" d="m642.548,131.157h5.013l20.661,27.989v-27.989h4.964v35.931h-4.964l-20.708-28.036v28.036h-4.965v-35.931Z"/>
      <path class="cls-1" d="m696.044,158.862c-1.593-2.742-2.388-5.91-2.388-9.504,0-2.742.473-5.255,1.418-7.541.947-2.284,2.277-4.262,3.996-5.933,1.717-1.67,3.759-2.962,6.122-3.877,2.364-.914,4.965-1.37,7.801-1.37,1.923,0,3.892.268,5.91.803,2.017.536,3.75,1.247,5.2,2.128l-.945,4.728c-1.923-.977-3.711-1.685-5.366-2.127-1.654-.441-3.333-.663-5.035-.663-2.679,0-5.028.576-7.044,1.727-2.017,1.15-3.593,2.749-4.728,4.798-1.135,2.049-1.702,4.429-1.702,7.139,0,2.775.559,5.178,1.678,7.211,1.119,2.032,2.702,3.601,4.751,4.704,2.049,1.104,4.445,1.654,7.187,1.654,1.67,0,3.466-.236,5.389-.709,1.923-.473,3.751-1.134,5.485-1.986l.614,4.728c-3.625,1.892-7.581,2.837-11.867,2.837-3.72,0-6.997-.771-9.834-2.317-2.837-1.544-5.051-3.687-6.642-6.429Z"/>
      <path class="cls-1" d="m745.189,131.157h22.789v4.444h-17.54v10.874h15.602v4.444h-15.602v11.726h18.201v4.444h-23.45v-35.931Z"/>
    </g>
    <g>
      <path class="cls-3" d="m207.58,28.877h25.407c5.868,0,10.919,1.001,15.155,3.001,4.234,2,7.503,4.851,9.803,8.553,2.301,3.701,3.451,8.119,3.451,13.254,0,4.602-1.15,8.652-3.451,12.153-2.301,3.501-5.219,6.319-8.753,8.453l19.706,30.609h-17.905l-15.604-26.607h-12.503v26.607h-15.305V28.877Zm22.907,37.411c10.136,0,15.205-4.234,15.205-12.703,0-8.402-4.936-12.603-14.805-12.603h-8.002v25.307h7.602Z"/>
      <path class="cls-3" d="m303.607,28.877h16.905l30.208,76.022h-17.004l-6.902-19.606h-30.408l-6.902,19.606h-16.004l30.109-76.022Zm18.805,44.013l-10.803-30.508-10.803,30.508h21.606Z"/>
      <path class="cls-3" d="m357.922,28.877h16.105v76.022h-16.105V28.877Z"/>
      <path class="cls-3" d="m387.829,28.877h14.104l38.711,52.515V28.877h14.604v76.022h-14.104l-38.61-52.315v52.315h-14.705V28.877Z"/>
      <path class="cls-3" d="m462.451,28.877h16.905l14.103,56.717,16.105-55.716h14.305l16.205,55.015,13.904-56.016h16.705l-22.706,76.022h-15.305l-16.305-54.616-15.804,54.616h-15.405l-22.706-76.022Z"/>
      <path class="cls-3" d="m592.387,28.877h16.905l30.208,76.022h-17.004l-6.902-19.606h-30.408l-6.902,19.606h-16.004l30.109-76.022Zm18.805,44.013l-10.803-30.508-10.803,30.508h21.606Z"/>
      <path class="cls-3" d="m646.702,28.877h16.105v62.819h34.11v13.203h-50.214V28.877Z"/>
      <path class="cls-3" d="m705.318,28.877h15.905v32.51l30.008-32.51h19.705l-34.809,36.311,38.211,39.712h-21.406l-31.709-34.309v34.309h-15.905V28.877Z"/>
    </g>
  </g>
  <path class="cls-1" d="m53.924,104.993c-.546,0-1.101-.084-1.649-.262-2.805-.91-4.342-3.922-3.432-6.728l6.605-20.361c2.708-8.349,10.424-14.039,19.201-14.159h22.672c2.949,0,5.34,2.391,5.34,5.34s-2.391,5.34-5.34,5.34h-22.6c-4.126.057-7.818,2.779-9.114,6.774l-6.605,20.361c-.732,2.258-2.827,3.694-5.079,3.694Z"/>
  <path class="cls-1" d="m110.205,28.743c20.28,14.102,11.664,43.087-12.611,45.413-7.063.461-8.086-9.689-1.066-10.64,7.281.196,14.474-3.792,17.083-10.859,3.312-8.447-.878-14.671-5.535-21.847-.885-1.344.823-2.989,2.128-2.067h0Z"/>
</svg>