<svg xmlns="http://www.w3.org/2000/svg" xml:space="preserve" x="0" y="0" version="1.1" viewBox="0 0 680 680"><g><path d="M293 562c-34-3-60-30-60-65v-49c0-100 96-180 214-180 118 0 213 80 213 180v50c0 32-25 60-56 64" fill="none" stroke="currentColor" stroke-linecap="round" stroke-linejoin="round" stroke-miterlimit="10" stroke-width="40"/><path d="M447 538v15c0 18-15 32-33 32h0a33 33 0 01-32-32v0m65-15v15c0 18 14 32 32 32h0c18 0 33-14 33-32v0" fill="none" stroke="currentColor" stroke-linecap="round" stroke-linejoin="round" stroke-miterlimit="10" stroke-width="40"/><path d="m467 518-20 21-20-21" fill="none" stroke="currentColor" stroke-linecap="round" stroke-linejoin="round" stroke-miterlimit="10" stroke-width="40"/><path d="m299 430-6 63c-1 15 0 30 2 44C310 607 372 660 447 660A154 154 0 00 600 493l-5-64" fill="none" stroke="currentColor" stroke-linecap="round" stroke-linejoin="round" stroke-miterlimit="10" stroke-width="40"/><path d="M380 468a22 22 0 11 0-44 22 22 0 01 0 44zm135 0a22 22 0 11 0-44 22 22 0 01 0 44" fill="#546242"/><path d="M347 82c-6-20-15-44-29-62 0 0-34 23-60 60A195 195 0 00 120 80C93 43 60 20 60 20a184 184 0 00-30 62c-7 26-10 53-10 80V210c0 78 76 142 169 142 93 0 168-64 168-142v-50c0-26-3-53-10-79" fill="none" stroke="currentColor" stroke-linecap="round" stroke-linejoin="round" stroke-miterlimit="10" stroke-width="40"/><path d="m207 220-18 19L170 220" fill="none" stroke="currentColor" stroke-linecap="round" stroke-linejoin="round" stroke-miterlimit="10" stroke-width="40"/><path d="M189 238v10c0 19-16 34-35 34h0a30 30 0 01-23-10l-15-14m73-20v10c0 19 15 34 34 34h0c9 0 17-3 23-10l15-14" fill="none" stroke="currentColor" stroke-linecap="round" stroke-linejoin="round" stroke-miterlimit="10" stroke-width="40"/><path d="M250 196a22 22 0 11 0-45 22 22 0 01 0 45zm-123 0a22 22 0 11 0-45 22 22 0 01 0 45" fill="#546242"/></g></svg>
